<svg xmlns="http://www.w3.org/2000/svg" width="496" height="496" viewBox="0 0 496 496" xmlSpace="preserve" class="w-full h-auto">
	<path
		d="M52 248h28v-18H52v-26h34v-18H32v108h20v-36zm60-20c0-16 8-26 22-26s22 10 22 26-8 26-22 26-22-10-22-26zm66 0c0-26-18-44-44-44s-44 18-44 44 18 44 44 44 44-18 44-44zm30-42h-20v108h20v-108zm30 42c0-16 8-26 22-26s22 10 22 26-8 26-22 26-22-10-22-26zm66 0c0-26-18-44-44-44s-44 18-44 44 18 44 44 44 44-18 44-44zm38 24h20l18-44 18 44h22l-30-72h-20l-28 72zm102 20c6 0 10-4 10-10s-4-10-10-10-10 4-10 10 4 10 10 10z" />
</svg>