<?xml version="1.0" encoding="UTF-8"?>
<svg version="1.1" xmlns="http://www.w3.org/2000/svg" width="1080" height="1350">
    <path
        d="M0 0 C4.62167258 2.70536932 7.70809859 5.7666449 11.14453125 9.85546875 C13.02865968 12.03312456 15.00726374 14.04641109 17.0625 16.0625 C20.04762 19.00151776 22.8221688 22.02517832 25.48046875 25.26171875 C27.54304892 27.62122563 29.7823529 29.78550296 32 32 C34.28975132 34.39907257 36.5521683 36.82322402 38.8125 39.25 C39.4297998 39.91169189 40.04709961 40.57338379 40.68310547 41.25512695 C44.6367821 45.5041097 48.53732268 49.7928113 52.3515625 54.16796875 C54.16662726 56.18518527 56.06677668 58.09632376 58 60 C55.8594994 64.56106671 53.87546429 68.11471745 49 70 C44.29671614 69.56985611 39.95021656 68.1962235 35.47314453 66.76904297 C31.77930098 65.62041442 28.04832657 64.61880129 24.31469727 63.60839844 C22.38736166 63.08658845 20.46196814 62.55753957 18.53881836 62.02050781 C14.04167863 60.77100896 9.63413174 59.63892514 5 59 C5 58.34 5 57.68 5 57 C3.88625 56.87625 2.7725 56.7525 1.625 56.625 C-3.30460991 56.01542458 -8.14244255 55.02526315 -13 54 C-13.32511005 61.31119568 -12.1504412 67.50593992 -10.3125 74.5625 C-9.76145288 76.76751391 -9.21335455 78.97326651 -8.66796875 81.1796875 C-8.39001465 82.30213867 -8.11206055 83.42458984 -7.82568359 84.58105469 C-6.49380775 90.09601309 -5.29350256 95.63593275 -4.125 101.1875 C-3.91012939 102.18402588 -3.69525879 103.18055176 -3.47387695 104.20727539 C-1.45520047 113.89208634 -1.45520047 113.89208634 -2 118 C-3.42578125 120.08203125 -3.42578125 120.08203125 -5.3125 121.8125 C-5.92738281 122.39644531 -6.54226563 122.98039063 -7.17578125 123.58203125 C-9 125 -9 125 -12 126 C-15.19176092 122.83760418 -18.3776081 119.66931241 -21.5625 116.5 C-22.45775391 115.613125 -23.35300781 114.72625 -24.27539062 113.8125 C-29.40029216 108.706371 -34.31055293 103.50727417 -39 98 C-43.87671265 92.47252339 -48.84527802 87.10917028 -54.09375 81.93359375 C-57.2222342 78.76023375 -60.10946241 75.38913848 -63 72 C-63.58394531 71.32066406 -64.16789063 70.64132812 -64.76953125 69.94140625 C-66.18255952 68.296734 -67.59170922 66.64873067 -69 65 C-67.38405168 62.95880212 -65.7143618 60.95927063 -64 59 C-63.34 59 -62.68 59 -62 59 C-62 58.34 -62 57.68 -62 57 C-60.68 56.34 -59.36 55.68 -58 55 C-58 55.66 -58 56.32 -58 57 C-57.34 57 -56.68 57 -56 57 C-54.66796875 58.35546875 -54.66796875 58.35546875 -53.1875 60.1875 C-50.63370357 63.3301074 -47.86767651 66.14040145 -45 69 C-42.46178174 71.67126572 -39.95006345 74.36711482 -37.4375 77.0625 C-36.12433898 78.47065018 -34.81055531 79.87822001 -33.49609375 81.28515625 C-32.88878418 81.93629395 -32.28147461 82.58743164 -31.65576172 83.25830078 C-30.31866585 84.66479473 -28.93372943 86.02571512 -27.53515625 87.37109375 C-26 89 -26 89 -26 91 C-24.02 91 -22.04 91 -20 91 C-20.29769287 89.72882324 -20.59538574 88.45764648 -20.90209961 87.14794922 C-22.0091627 82.4184163 -23.11371855 77.68830075 -24.2175293 72.95800781 C-24.69503833 70.91325229 -25.1732214 68.86865405 -25.65209961 66.82421875 C-26.34146807 63.8806226 -27.02838716 60.93646389 -27.71484375 57.9921875 C-27.92842026 57.0825827 -28.14199677 56.17297791 -28.36204529 55.23580933 C-31.31499978 42.53999962 -31.31499978 42.53999962 -29.25 39 C-25.54422541 36.71952333 -25.04099871 36.85526281 -20.9921875 37.69140625 C-19.52652344 37.99328857 -19.52652344 37.99328857 -18.03125 38.30126953 C-13.27770522 39.39700448 -8.57318999 40.62583936 -3.875 41.9375 C-2.95074219 42.18951172 -2.02648437 42.44152344 -1.07421875 42.70117188 C4.01756573 44.10518297 9.03407665 45.63085459 14.0168457 47.38427734 C16.9902185 48.3074395 19.90865106 48.67113309 23 49 C22.57742724 47.5164999 22.13643678 46.03823576 21.6875 44.5625 C21.44386719 43.73878906 21.20023438 42.91507813 20.94921875 42.06640625 C20.63597656 41.38449219 20.32273437 40.70257812 20 40 C18.515 39.505 18.515 39.505 17 39 C15.75481955 37.55821211 14.51468624 36.11069139 13.33203125 34.6171875 C11.85172727 32.76069959 11.85172727 32.76069959 9.3125 30.375 C7.22422469 28.23028482 6.30556868 26.61113736 5 24 C3.515 23.505 3.515 23.505 2 23 C0.3515625 21.36328125 0.3515625 21.36328125 -1.375 19.3125 C-1.98214844 18.59707031 -2.58929687 17.88164063 -3.21484375 17.14453125 C-3.80394531 16.43683594 -4.39304687 15.72914063 -5 15 C-5.51691406 14.38511719 -6.03382813 13.77023437 -6.56640625 13.13671875 C-7.7171727 11.76301179 -8.85958928 10.38231603 -10 9 C-9.34 9 -8.68 9 -8 9 C-7.79375 8.443125 -7.5875 7.88625 -7.375 7.3125 C-5.44999226 4.07498698 -2.96149098 2.31768859 0 0 Z "
        fill="#000000" transform="translate(761,842)" />
    <path
        d="M0 0 C9.3146115 7.04202571 16.52038171 16.08470777 18.75 27.8125 C19.90924842 41.66646885 15.79834506 53.39629193 6.87304688 64.05371094 C1.19611765 70.3110545 -4.597658 76.43941428 -10.53588867 82.44848633 C-11.56789193 83.4973238 -12.59446486 84.55152792 -13.6159668 85.6105957 C-15.11365716 87.16267873 -16.62681739 88.69799203 -18.14453125 90.23046875 C-19.47254761 91.58821411 -19.47254761 91.58821411 -20.82739258 92.97338867 C-23.25 94.8125 -23.25 94.8125 -25.28222656 94.86523438 C-27.92630191 93.45068687 -29.73070474 91.68502648 -31.83984375 89.55078125 C-32.70673828 88.67873047 -33.57363281 87.80667969 -34.46679688 86.90820312 C-35.36462891 85.98974609 -36.26246094 85.07128906 -37.1875 84.125 C-38.08146484 83.22587891 -38.97542969 82.32675781 -39.89648438 81.40039062 C-47.05169052 74.16019316 -47.05169052 74.16019316 -50.16015625 70.35546875 C-51.92765625 68.2047351 -53.58211743 66.53044468 -55.75 64.8125 C-58.04926074 62.908811 -59.75354059 61.20566903 -61.6875 58.875 C-64.42534189 55.60294506 -67.38760093 53.02674249 -70.67578125 50.328125 C-71.19527344 49.82796875 -71.71476562 49.3278125 -72.25 48.8125 C-72.25 48.1525 -72.25 47.4925 -72.25 46.8125 C-72.889375 46.544375 -73.52875 46.27625 -74.1875 46 C-76.25 44.8125 -76.25 44.8125 -77.25 41.8125 C-78.24 41.4825 -79.23 41.1525 -80.25 40.8125 C-81.62195574 39.51894173 -82.96182656 38.18951298 -84.25 36.8125 C-82.56823363 32.48057718 -79.37659464 29.5975034 -76.16796875 26.359375 C-75.5579451 25.74032288 -74.94792145 25.12127075 -74.31941223 24.48345947 C-73.023388 23.17293593 -71.72454049 21.86519929 -70.4230957 20.56005859 C-68.47019282 18.59538978 -66.53676964 16.6128856 -64.60351562 14.62890625 C-46.70897907 -3.49972642 -24.10597727 -15.84949576 0 0 Z M-40.25 10.8125 C-41.384375 11.369375 -42.51875 11.92625 -43.6875 12.5 C-44.533125 12.933125 -45.37875 13.36625 -46.25 13.8125 C-46.25 14.4725 -46.25 15.1325 -46.25 15.8125 C-46.77980469 16.02648437 -47.30960937 16.24046875 -47.85546875 16.4609375 C-51.18201396 18.33856335 -53.82054701 20.8158937 -56.5625 23.4375 C-57.12517578 23.93378906 -57.68785156 24.43007813 -58.26757812 24.94140625 C-60.53810025 27.12577637 -62.10728548 28.67240562 -62.5078125 31.87207031 C-62.24558769 35.03479287 -61.61995877 37.34328401 -59.6484375 39.84375 C-58.98070312 40.3284375 -58.31296875 40.813125 -57.625 41.3125 C-54.65680764 43.63635167 -52.1672826 45.9162167 -49.75 48.8125 C-46.84458769 52.238383 -43.71667859 55.12058097 -40.296875 58.0234375 C-35.77724504 61.97380109 -31.6119442 66.32386332 -27.5625 70.75 C-24.93626596 73.09231685 -23.78277843 73.98483066 -20.25 73.8125 C-17.85790352 72.36703886 -16.26146756 70.82396756 -14.25 68.8125 C-14.25 68.1525 -14.25 67.4925 -14.25 66.8125 C-13.6725 66.56757813 -13.095 66.32265625 -12.5 66.0703125 C-5.25778365 62.02171239 -0.04768916 53.71229866 2.33203125 45.90234375 C3.86854837 38.21975813 3.22842067 29.85796352 -0.25 22.8125 C-5.07194481 15.85425053 -10.94378089 10.09671025 -19.25 7.8125 C-26.8582234 6.94638528 -33.52044721 7.02712655 -40.25 10.8125 Z "
        fill="#000000" transform="translate(344.25,414.1875)" />
    <path
        d="M0 0 C6.50169838 1.86479526 12.82587321 3.97818183 19.125 6.4375 C20.96057601 7.14546921 22.79654048 7.85243176 24.6328125 8.55859375 C25.63731445 8.94515137 26.64181641 9.33170898 27.67675781 9.72998047 C33.41319311 11.92223263 39.16625183 14.07006543 44.91815186 16.22134399 C57.96349831 21.10058429 70.99280779 26.01976875 84 31 C83.42294143 36.42323005 82.77460791 40.17459495 80 45 C78.02 44.67 76.04 44.34 74 44 C74.11859375 45.09957031 74.2371875 46.19914063 74.359375 47.33203125 C75.44449245 58.95226959 74.73077454 67.25954509 67.5625 76.9375 C62.0359117 83.52012429 55.74484004 87.93355609 47 89 C40.61709049 89.4255273 35.89408274 88.42425381 30 86 C29.02417969 85.62101563 28.04835937 85.24203125 27.04296875 84.8515625 C18.05052616 80.9378705 12.48851781 75.19673679 8.8125 66.04296875 C6.32863954 56.74043365 7.69343013 47.51526315 12 39 C14.11356053 35.64437954 16.30048183 33.38862121 19.8125 31.4375 C20.534375 30.963125 21.25625 30.48875 22 30 C22.66685938 27.45672892 22.66685938 27.45672892 22 25 C19.02044921 23.01363281 16.27858714 22.07921612 12.89453125 20.99609375 C6.83827437 18.91195677 0.93061668 16.41444078 -5 14 C-4.54857225 12.22739369 -4.08859477 10.4569632 -3.625 8.6875 C-3.36976563 7.70136719 -3.11453125 6.71523438 -2.8515625 5.69921875 C-2 3 -2 3 0 0 Z M27.1875 37.25 C21.93866874 43.84853073 21.14564105 49.73712848 22 58 C23.71279864 64.53004481 27.36906253 67.66887765 33 71 C39.41502406 74.08677099 46.72516817 74.07176314 53.4375 71.875 C58.14807189 68.42824008 61.17534142 64.52241801 63 59 C63.86625322 51.60662946 63.61208773 45.94716576 59 40 C53.93801593 34.69696907 47.78232057 32.27744761 40.44140625 31.8515625 C35.28452761 32.16510072 31.19282715 34.04573828 27.1875 37.25 Z "
        fill="#000000" transform="translate(212,516)" />
    <path
        d="M0 0 C1.98 0.33 3.96 0.66 6 1 C6 1.66 6 2.32 6 3 C6.78375 3.2475 7.5675 3.495 8.375 3.75 C11 5 11 5 12.4375 6.75 C13.23683819 9.94735276 12.22231091 12.01212889 11 15 C11.71285156 15.03738281 12.42570313 15.07476562 13.16015625 15.11328125 C24.42462535 15.88648169 31.39140043 19.59320555 39 28 C43.70471474 35.42680482 45.85165717 42.22793113 45 51 C42.57121925 61.43205225 36.81559861 69.69578964 28.02734375 75.78515625 C21.20502105 79.87329182 13.35366214 81.90850024 5.421875 80.5625 C-4.16149724 77.97557743 -11.21050246 73.07160107 -17 65 C-18.85906999 61.68399928 -20 58.86454942 -20 55 C-23.55496439 55.56415739 -24.97388703 56.69180062 -27.25 59.4375 C-27.84941406 60.15164063 -28.44882812 60.86578125 -29.06640625 61.6015625 C-31.78365189 64.97204497 -34.46241746 68.37181247 -37.10546875 71.80078125 C-39 74 -39 74 -43 77 C-46.63 74.03 -50.26 71.06 -54 68 C-49.97878445 62.57589421 -45.84546618 57.28141128 -41.5625 52.0625 C-36.4693257 45.83063545 -36.4693257 45.83063545 -31.5 39.5 C-28.24524006 35.26881208 -24.87302686 31.13693633 -21.5 27 C-17.48698043 22.07752867 -13.50723214 17.13832039 -9.6328125 12.10546875 C-6.47249465 8.03032205 -3.2306644 4.01944999 0 0 Z M-6 31 C-10.85478742 37.96278722 -12.21402678 44.61743415 -11 53 C-9.70057303 57.88293985 -7.48711801 61.00740781 -3.375 63.9375 C1.23540649 66.47021865 5.76398597 67.29136576 11 67 C16.3396619 65.39810143 20.06230374 62.84165489 24 59 C24 58.01 24 57.02 24 56 C24.66 56 25.32 56 26 56 C29.13927863 48.67501652 30.36710994 42.87415022 27.375 35.3125 C24.73801951 29.92711732 21.5539134 27.11733711 16 24.6875 C7.7536368 22.79770843 -0.33363833 24.38405574 -6 31 Z "
        fill="#000000" transform="translate(724,393)" />
    <path
        d="M0 0 C5.54423064 1.4599228 9.53972386 4.20778874 14.125 7.5 C15.52181755 8.49186861 16.92020605 9.48152938 18.3203125 10.46875 C18.93148926 10.90638672 19.54266602 11.34402344 20.17236328 11.79492188 C22.05274204 13.03477621 23.96759421 14.03341584 26 15 C26 15.66 26 16.32 26 17 C26.804375 17.185625 27.60875 17.37125 28.4375 17.5625 C32.39547932 19.15957938 34.97778107 21.22354398 38.26953125 23.88671875 C41.45931195 26.35549037 44.76068297 28.59065887 48.125 30.8125 C48.76042725 31.23305664 49.39585449 31.65361328 50.05053711 32.08691406 C52.706395 33.84003867 55.36687701 35.58598811 58.03027344 37.32763672 C62.38346022 40.17621263 66.69991853 43.07184928 71 46 C71.8353125 46.53109375 72.670625 47.0621875 73.53125 47.609375 C75.5 49 75.5 49 78 52 C78.37659795 55.52263932 77.8794949 58.58610264 77 62 C76.81671143 62.9907251 76.63342285 63.9814502 76.44458008 65.00219727 C75 68 75 68 71.62744141 69.48413086 C70.16687699 69.85782006 68.69901218 70.20364023 67.2265625 70.52734375 C66.43037506 70.72472641 65.63418762 70.92210907 64.81387329 71.12547302 C63.09994892 71.54925487 61.38340289 71.96254403 59.66467285 72.36639404 C56.12481737 73.20810094 52.60821603 74.13114157 49.08831787 75.05215454 C44.52258262 76.24329023 39.94807095 77.39991623 35.375 78.5625 C33.52079111 79.03564184 31.66662431 79.50894868 29.8125 79.98242188 C-9.45059568 90 -9.45059568 90 -15 90 C-14.88544319 88.08268082 -14.75793742 86.1661325 -14.625 84.25 C-14.55539062 83.18265625 -14.48578125 82.1153125 -14.4140625 81.015625 C-14.01173162 78.08544163 -13.60161889 76.44859826 -12 74 C-10.15234375 73.27392578 -10.15234375 73.27392578 -7.9375 72.9453125 C-7.14085937 72.80480469 -6.34421875 72.66429687 -5.5234375 72.51953125 C-3.84232085 72.25669413 -2.15999611 72.00147002 -0.4765625 71.75390625 C0.32007813 71.61082031 1.11671875 71.46773437 1.9375 71.3203125 C2.66839844 71.20961426 3.39929688 71.09891602 4.15234375 70.98486328 C6.285959 70.09158734 6.285959 70.09158734 7.17333984 67.34448242 C8.49091732 62.01385811 9.39332921 56.63996744 10.28710938 51.22436523 C10.62259579 49.20199299 10.9709729 47.18212871 11.3203125 45.16210938 C13.1731239 35.1162453 13.1731239 35.1162453 13 25 C10.55692643 22.28777134 10.55692643 22.28777134 7.1875 20.5625 C6.10855469 19.92441406 5.02960937 19.28632812 3.91796875 18.62890625 C2.95503906 18.09136719 1.99210938 17.55382812 1 17 C0.01 16.34 -0.98 15.68 -2 15 C-1.03644647 4.44191344 -1.03644647 4.44191344 0 0 Z M26 35 C24.37257792 40.31388688 23.2710894 45.58081023 22.375 51.0625 C22.2409375 51.83916016 22.106875 52.61582031 21.96875 53.41601562 C21.26425739 57.66094302 20.8479183 61.67949727 21 66 C25.8593873 66.12656469 30.20372212 65.72181385 34.95703125 64.72265625 C36.23384766 64.45646484 37.51066406 64.19027344 38.82617188 63.91601562 C39.48029053 63.77591064 40.13440918 63.63580566 40.80834961 63.49145508 C42.82317386 63.06021544 44.84000777 62.63964243 46.85742188 62.22070312 C53.09468912 61.11893725 53.09468912 61.11893725 59 59 C59.70751912 56.23620827 59.70751912 56.23620827 59 53 C56.48738857 50.67112179 53.55562127 49.13842028 50.5625 47.5 C48.90146656 46.54579619 47.24129945 45.59008261 45.58203125 44.6328125 C44.78490723 44.18067383 43.9877832 43.72853516 43.16650391 43.26269531 C40.59528597 41.76412205 38.17010122 40.10543507 35.75 38.375 C32.56090141 36.18603292 29.94188597 35.202148 26 35 Z "
        fill="#000000" transform="translate(816,677)" />
    <path
        d="M0 0 C6.84827314 0.76091924 10.21643241 1.16974352 16 4 C15.3787976 13.8190056 13.0803357 23.19242742 10.875 32.75 C10.46962994 34.52545706 10.06468625 36.30101151 9.66015625 38.07666016 C8.6424379 42.53558988 7.61685524 46.9926656 6.58825684 51.44909668 C6.02615918 53.88656392 5.46623807 56.32451866 4.90722656 58.76269531 C3.94281192 62.96788051 2.97268665 67.17172148 2 71.375 C1.7097998 72.63280273 1.41959961 73.89060547 1.12060547 75.18652344 C0.85393066 76.32895508 0.58725586 77.47138672 0.3125 78.6484375 C0.08175781 79.64020996 -0.14898437 80.63198242 -0.38671875 81.65380859 C-1 84 -1 84 -2 86 C-15.23189105 83.6640564 -28.34030323 80.86392857 -41.4375 77.875 C-42.21179352 77.69928467 -42.98608704 77.52356934 -43.78384399 77.3425293 C-46.02212182 76.8335914 -48.25928345 76.32003306 -50.49609375 75.8046875 C-51.16416046 75.6526889 -51.83222717 75.50069031 -52.52053833 75.34408569 C-56.43082384 74.43485149 -60.21181459 73.32789291 -64 72 C-63.34 68.7 -62.68 65.4 -62 62 C-58.29877778 60.76625926 -56.41283767 61.34121828 -52.609375 62.14453125 C-51.34222656 62.40943359 -50.07507813 62.67433594 -48.76953125 62.94726562 C-48.10904785 63.08946533 -47.44856445 63.23166504 -46.76806641 63.37817383 C-44.77275092 63.80760357 -42.7754046 64.2261303 -40.77734375 64.64257812 C-30.96070451 66.71630587 -30.96070451 66.71630587 -26.31347656 68.08862305 C-22.74198498 69.07096744 -19.68629338 69.15046095 -16 69 C-15.32246768 66.16888282 -14.65781273 63.33570624 -14 60.5 C-13.80921875 59.70851563 -13.6184375 58.91703125 -13.421875 58.1015625 C-12.23665059 52.93737043 -11.80558718 48.29774939 -12 43 C-12.90242432 42.79842285 -13.80484863 42.5968457 -14.73461914 42.38916016 C-18.11015321 41.63412645 -21.48526208 40.87724438 -24.86010742 40.11914062 C-26.31567254 39.79256222 -27.77139919 39.4667029 -29.22729492 39.14160156 C-31.33035366 38.6718536 -33.43280116 38.19944839 -35.53515625 37.7265625 C-36.797229 37.44377441 -38.05930176 37.16098633 -39.35961914 36.86962891 C-42.94627805 36.01283332 -46.46323503 35.04010778 -50 34 C-49.125 26.375 -49.125 26.375 -48 23 C-38.98395954 23.75456133 -30.37893686 25.89076386 -21.59765625 28.00390625 C-20.43621094 28.27332031 -19.27476562 28.54273438 -18.078125 28.8203125 C-17.03043945 29.07055176 -15.98275391 29.32079102 -14.90332031 29.57861328 C-11.63843715 30.21795826 -11.63843715 30.21795826 -7 29 C-4.69 19.43 -2.38 9.86 0 0 Z "
        fill="#000000" transform="translate(492,944)" />
    <path
        d="M0 0 C6.98681264 6.71808908 11.31484711 13.86471544 12.5625 23.625 C12.09811241 35.10408081 8.13840185 42.81739626 -0.0625 50.640625 C-8.22656674 57.4619176 -17.07665137 58.32810496 -27.4375 57.625 C-37.76317238 55.78895059 -47.00483951 49.33926068 -53.00390625 40.89453125 C-57.68425111 33.48504797 -60.54258439 26.58678025 -59.4375 17.625 C-56.41525905 6.60086721 -51.11909661 -1.51730462 -41.38671875 -7.671875 C-26.842175 -15.46662078 -11.81086628 -10.1286064 0 0 Z M-36.4375 6.625 C-42.96365258 14.99453054 -44.29473284 20.96911956 -43.4375 31.625 C-41.92840488 36.53776075 -38.75351449 39.91494439 -34.4375 42.625 C-28.33528663 44.88507903 -23.20131069 45.46401396 -16.9375 43.5625 C-11.42650195 40.91871039 -7.63156429 36.58942834 -4.5 31.4375 C-2.67498624 24.88892123 -2.07809569 18.39415693 -5.125 12.1875 C-11.08972829 5.19796016 -11.08972829 5.19796016 -19.42578125 2.2890625 C-28.69089071 2.15609386 -28.69089071 2.15609386 -36.4375 6.625 Z "
        fill="#000000" transform="translate(377.4375,892.375)" />
    <path
        d="M0 0 C0.70382812 0.48082031 1.40765625 0.96164062 2.1328125 1.45703125 C2.1328125 2.11703125 2.1328125 2.77703125 2.1328125 3.45703125 C2.72964844 3.71097656 3.32648437 3.96492188 3.94140625 4.2265625 C8.73430603 6.91776291 12.72739976 13.15651946 14.65625 18.22265625 C16.48478621 26.79579325 16.25836294 35.55546997 11.7421875 43.1796875 C6.24973448 50.95177515 0.26257688 57.64281244 -9.27734375 60.0703125 C-21.22224232 61.85393989 -31.22808834 60.26620127 -41.21875 53.5078125 C-49.44954601 47.13440851 -55.13477966 39.36003032 -56.7421875 28.95703125 C-57.41136988 19.03940522 -53.48751192 9.82097012 -47.046875 2.34375 C-33.28425986 -10.66665743 -15.65847936 -8.42656587 0 0 Z M-34.62890625 11.4453125 C-39.83190513 18.73958938 -41.5778751 25.24635317 -40.40625 34.12890625 C-39.10825506 39.73473947 -35.53101926 43.34781007 -30.8671875 46.45703125 C-25.60641765 48.79515118 -20.32729388 49.48465683 -14.7890625 47.83984375 C-8.38897145 45.07949913 -4.69278634 40.25776603 -1.72265625 34.07421875 C0.1770381 28.26236844 -0.07281011 21.75654474 -2.0546875 16.01953125 C-5.88503464 10.60421288 -9.47548015 7.48107191 -15.8671875 5.45703125 C-23.19046027 4.37503419 -29.60738243 5.77800513 -34.62890625 11.4453125 Z "
        fill="#000000" transform="translate(679.8671875,367.54296875)" />
    <path
        d="M0 0 C1.63146774 0.14501215 3.26297801 0.28954671 4.89453125 0.43359375 C8.84697265 0.78269264 12.79835299 1.14153526 16.75 1.5 C16.42 6.45 16.09 11.4 15.75 16.5 C9.68718023 16.58305233 3.73395333 16.4626058 -2.3125 16 C-8.14727653 15.59347868 -13.96380763 15.33135647 -19.8125 15.25 C-20.56217041 15.22873047 -21.31184082 15.20746094 -22.08422852 15.18554688 C-26.87678371 15.15534736 -30.08758268 15.87573086 -34.25 18.5 C-38.53070483 23.92222612 -37.8682143 30.93356167 -37.25 37.5 C-35.72813934 41.91339592 -34.13585287 44.02293571 -30.25 46.5 C-19.87354031 49.80694537 -8.69662091 50.15402671 2.08837891 50.85375977 C3.17940918 50.92522217 4.27043945 50.99668457 5.39453125 51.0703125 C6.37784424 51.12977051 7.36115723 51.18922852 8.37426758 51.25048828 C10.75 51.5 10.75 51.5 12.75 52.5 C12.60879286 54.43784265 12.46187127 56.37526955 12.3125 58.3125 C12.19068359 59.93091797 12.19068359 59.93091797 12.06640625 61.58203125 C11.75 64.5 11.75 64.5 10.75 67.5 C4.99206329 67.11350411 -0.7655561 66.72263588 -6.52294922 66.328125 C-8.47176552 66.19515672 -10.42065656 66.06327826 -12.36962891 65.93261719 C-22.79489591 65.23293484 -33.20871114 64.46766194 -43.609375 63.4609375 C-44.46694397 63.38026031 -45.32451294 63.29958313 -46.20806885 63.21646118 C-52.12949535 62.62050465 -52.12949535 62.62050465 -53.25 61.5 C-53.3489294 59.33519203 -53.379711 57.16706215 -53.375 55 C-53.37757813 53.8140625 -53.38015625 52.628125 -53.3828125 51.40625 C-53.25 48.5 -53.25 48.5 -52.25 47.5 C-50.25041636 47.45919217 -48.24954746 47.45745644 -46.25 47.5 C-47.50314084 41.86815388 -47.50314084 41.86815388 -49.8125 36.625 C-53.17003633 29.32600798 -52.62427909 22.00813835 -50.44140625 14.40234375 C-47.99660208 8.44664049 -44.30970997 4.23164568 -38.703125 1.05859375 C-26.63274593 -3.94747387 -12.66307356 -1.15589011 0 0 Z "
        fill="#000000" transform="translate(255.25,618.5)" />
    <path
        d="M0 0 C2.92914536 9.71378167 4.75282687 19.60621218 6.625 29.5625 C7.09179721 32.0362846 7.5598866 34.50979595 8.03158569 36.98265076 C8.32283032 38.51013206 8.61121307 40.0381625 8.89639282 41.56678772 C9.59651033 45.39419652 9.59651033 45.39419652 11 49 C14.69288113 48.74821265 16.51827145 48.45496586 19.25 45.875 C24.02460957 38.03099857 23.78406306 29.7413617 21.703125 21.10546875 C20.66837284 18.00696089 18.93854008 15.60491324 17 13 C16.34 11.68 15.68 10.36 15 9 C16.98 6.69 18.96 4.38 21 2 C27.7695795 5.38478975 31.43094844 10.02529831 34 17 C37.35251709 28.4509843 38.17681357 38.57187932 33.2890625 49.6484375 C28.66520797 58.08346909 21.14689163 64.07860783 12 67 C2.18649217 68.21049868 -7.91085776 68.24475972 -16 62 C-24.92336024 54.53785773 -30.13075191 46.27197959 -31.22265625 34.625 C-31.51900798 26.37869106 -30.11479885 19.08739002 -24.6875 12.6875 C-17.58827056 5.2899836 -10.68132243 0 0 0 Z M-13 18 C-18.31666379 23.62047315 -19.41186032 28.75474502 -19.25 36.28125 C-18.66132319 42.68311036 -15.90086464 46.81633507 -11 51 C-7.26416589 53.70525918 -3.4454405 53.14818135 1 53 C2.24613553 48.57381534 1.68726453 45.20418942 0.78515625 40.73046875 C0.65056503 40.04946609 0.51597382 39.36846344 0.37730408 38.66682434 C-0.052045 36.50515237 -0.49455168 34.34642192 -0.9375 32.1875 C-1.23199421 30.71697172 -1.52562347 29.24626994 -1.81835938 27.77539062 C-2.53556958 24.18153063 -3.26459934 20.59018736 -4 17 C-7.76456224 15.89934409 -9.49133243 16.07023284 -13 18 Z "
        fill="#000000" transform="translate(238,699)" />
    <path
        d="M0 0 C3.45195767 1.4258086 5.1014256 3.09746334 7.25 6.125 C8.03117187 7.21167969 8.03117187 7.21167969 8.828125 8.3203125 C9.40820312 9.15175781 9.40820312 9.15175781 10 10 C8.47403015 14.11635078 5.54496095 16.17751417 2.125 18.6875 C1.55072266 19.11957764 0.97644531 19.55165527 0.38476562 19.99682617 C-1.40381918 21.33997892 -3.20039864 22.67165268 -5 24 C-7.1684541 25.6017979 -9.33490948 27.20614252 -11.5 28.8125 C-12.4384375 29.49957031 -13.376875 30.18664062 -14.34375 30.89453125 C-20.34028355 35.56344589 -20.34028355 35.56344589 -24 42 C-24.63385957 48.33859567 -23.61938875 52.71733227 -20 58 C-15.23543447 62.6454514 -11.79107927 63.06016168 -5.29296875 63.328125 C1.83522455 62.3080769 7.32017598 57.86375525 12.9375 53.6875 C13.69740234 53.13126953 14.45730469 52.57503906 15.24023438 52.00195312 C19.77930699 48.67813635 19.77930699 48.67813635 24.20751953 45.20947266 C24.90345215 44.65179199 25.59938477 44.09411133 26.31640625 43.51953125 C27.23788452 42.75733276 27.23788452 42.75733276 28.17797852 41.97973633 C30 41 30 41 32.1237793 41.21337891 C34.84051336 42.3523922 35.71696484 44.08873872 37.25 46.5625 C37.77078125 47.38878906 38.2915625 48.21507812 38.828125 49.06640625 C39.40820312 50.02353516 39.40820312 50.02353516 40 51 C38.503308 54.82206092 36.39629697 56.43499608 33.0625 58.75 C32.0725 59.44738281 31.0825 60.14476562 30.0625 60.86328125 C29.051875 61.56839844 28.04125 62.27351562 27 63 C25.18408369 64.30776927 23.37150487 65.62018686 21.5625 66.9375 C20.65628906 67.59621094 19.75007813 68.25492188 18.81640625 68.93359375 C14.85570237 71.83957482 10.9336018 74.79583237 7.01171875 77.75390625 C3.07841153 80.68730657 -0.91373867 83.53548018 -4.91796875 86.37109375 C-7.09648441 87.83556752 -7.09648441 87.83556752 -8 90 C-9.65 90 -11.3 90 -13 90 C-14.98 86.04 -16.96 82.08 -19 78 C-18.34 78 -17.68 78 -17 78 C-17 76.02 -17 74.04 -17 72 C-18.4540625 71.443125 -18.4540625 71.443125 -19.9375 70.875 C-29.60049107 66.6498865 -35.65158172 61.1834579 -40.12890625 51.578125 C-42.02348684 45.97084613 -41.97868541 40.00788636 -40.1484375 34.3828125 C-36.26435445 26.9244199 -29.65553111 22.30567139 -23.01318359 17.46923828 C-20.16929382 15.39374366 -17.36183319 13.2708542 -14.55029297 11.15185547 C-12.53715966 9.6374693 -10.51723901 8.13257261 -8.49609375 6.62890625 C-5.61551801 4.47760987 -2.79146209 2.2663886 0 0 Z "
        fill="#000000" transform="translate(300,811)" />
    <path
        d="M0 0 C1.0828125 -0.00515625 2.165625 -0.0103125 3.28125 -0.015625 C12.16939653 0.71786282 20.41617835 5.61514753 26.375 12.125 C32.07174713 19.16215822 36.13954641 27.78762936 35.80078125 37.0234375 C34.48551305 46.75983849 29.69551754 53.7461258 22.5 60.25 C20.86258508 61.29721066 19.20286734 62.31297247 17.5 63.25 C16.77554688 62.26 16.05109375 61.27 15.3046875 60.25 C14.32814887 58.91664918 13.35158501 57.58331684 12.375 56.25 C11.900625 55.60160156 11.42625 54.95320312 10.9375 54.28515625 C8.48987506 50.94447897 6.02709064 47.61733727 3.53125 44.3125 C0.3054786 40.0212688 -2.79099473 35.64375566 -5.875 31.25 C-6.42027344 30.47527344 -6.96554687 29.70054687 -7.52734375 28.90234375 C-8.85266134 27.0189977 -10.17686209 25.13487769 -11.5 23.25 C-13.45236766 23.51874705 -13.45236766 23.51874705 -15.5 24.25 C-18.66127932 29.78223881 -19.57995349 35.0945268 -17.9609375 41.32421875 C-15.46430627 48.5260396 -11.68472417 54.73324848 -4.625 58.16015625 C-2.93228001 58.89389576 -1.21755716 59.57644817 0.5 60.25 C-0.16 63.22 -0.82 66.19 -1.5 69.25 C-4.32773192 70.05650101 -5.97538851 70.43864454 -8.78125 69.4296875 C-13.29424269 66.77592067 -17.0049855 64.21731376 -20.5 60.25 C-20.98082031 59.74855469 -21.46164062 59.24710938 -21.95703125 58.73046875 C-28.89030984 51.23550683 -34.18253113 40.88426971 -33.80078125 30.4765625 C-32.36880823 19.87624272 -26.70501198 12.04734139 -18.34765625 5.5859375 C-12.52398502 1.76310533 -7.01854647 -0.03342165 0 0 Z M-4.5 14.25 C-4.95105628 19.23667779 -4.53341572 21.98869894 -1.35009766 25.93066406 C-0.90456543 26.44854492 -0.4590332 26.96642578 0 27.5 C0.92099885 28.62358577 1.84024236 29.74861245 2.7578125 30.875 C3.21961914 31.43445313 3.68142578 31.99390625 4.15722656 32.5703125 C6.87319994 35.96774829 9.2683521 39.60680777 11.7109375 43.203125 C13.64738846 45.41862784 14.62371752 45.92055795 17.5 46.25 C21.9952113 41.02975461 22.82137201 37.29832971 22.7109375 30.55078125 C22.1085433 23.98022231 18.24082232 18.62044558 13.5 14.25 C10.12231526 13.12410509 7.49187928 13.11705725 3.9375 13.125 C2.20306641 13.12113281 2.20306641 13.12113281 0.43359375 13.1171875 C-2.43453438 13.04797384 -2.43453438 13.04797384 -4.5 14.25 Z "
        fill="#000000" transform="translate(786.5,462.75)" />
    <path
        d="M0 0 C0.99 0.556875 1.98 1.11375 3 1.6875 C8.92121559 6.25177035 12.8947252 10.75537789 15 18 C14.40276123 18.31114746 13.80552246 18.62229492 13.19018555 18.94287109 C6.12469552 22.62457304 -0.93826586 26.3110997 -8 30 C-9.4543042 30.75917725 -9.4543042 30.75917725 -10.93798828 31.53369141 C-13.58474034 32.91623996 -16.23010399 34.30140476 -18.875 35.6875 C-20.08603394 36.31954346 -20.08603394 36.31954346 -21.3215332 36.96435547 C-24.88578543 38.65712285 -24.88578543 38.65712285 -28 41 C-28.58488562 43.37124598 -28.58488562 43.37124598 -28 46 C-25.06988293 49.18865681 -23.12607037 49.84985728 -18.8359375 50.421875 C-10.80363109 50.73686741 -4.600951 49.73349138 2 45 C4.93205887 41.99276013 6.91986537 38.6402356 9 35 C10.64846769 35.44876616 12.29373455 35.90930488 13.9375 36.375 C14.85402344 36.63023437 15.77054687 36.88546875 16.71484375 37.1484375 C19 38 19 38 20 40 C14.25565722 51.27593213 5.87044463 57.7282829 -6 62 C-15.99460645 64.96136487 -24.48922705 64.51338207 -34 60 C-42.15617447 54.25000996 -48.70375073 46.95093388 -50.71875 36.9921875 C-52.00250126 27.89894938 -50.34737389 19.77829083 -44.875 12.3125 C-34.21737704 -0.41806442 -15.81257009 -9.22399922 0 0 Z M-32.3125 14.5 C-35.70305719 18.55798971 -36.15573179 21.83345183 -36.1875 27.0625 C-36.20167969 28.12597656 -36.21585937 29.18945312 -36.23046875 30.28515625 C-36.28122312 33.14861681 -36.28122312 33.14861681 -34 35 C-29.93940753 34.67076277 -27.43523395 33.06479487 -24 31 C-19.91788508 28.81833172 -15.79999468 26.70391919 -11.68554688 24.58398438 C-10.85732422 24.15279297 -10.02910156 23.72160156 -9.17578125 23.27734375 C-8.42208252 22.88796631 -7.66838379 22.49858887 -6.8918457 22.09741211 C-4.84998549 21.02121685 -4.84998549 21.02121685 -3 19 C-2.92783361 15.50278106 -2.92783361 15.50278106 -4 12 C-6.33790071 10.04664818 -6.33790071 10.04664818 -9 9 C-9.66 8.67 -10.32 8.34 -11 8 C-19.89348604 7.3076927 -26.13214289 7.62162609 -32.3125 14.5 Z "
        fill="#000000" transform="translate(414,375)" />
    <path
        d="M0 0 C6.91181535 5.00958924 12.80656642 11.92425446 14.84765625 20.34375 C15.39589252 23.78545547 15.83406188 27.11772387 15.41015625 30.59375 C12.18841376 32.74157833 11.36678315 32.84024148 7.66333008 32.82080078 C6.70256058 32.82064972 5.74179108 32.82049866 4.75190735 32.82034302 C3.7174498 32.81002045 2.68299225 32.79969788 1.6171875 32.7890625 C0.02543953 32.78481766 0.02543953 32.78481766 -1.59846497 32.78048706 C-4.99153872 32.76928184 -8.38434962 32.74417647 -11.77734375 32.71875 C-14.07616807 32.70872065 -16.37499651 32.69959472 -18.67382812 32.69140625 C-24.31258986 32.66934141 -29.95119803 32.63586044 -35.58984375 32.59375 C-36.41158979 35.94307351 -36.68886881 37.30832484 -35.52734375 40.65625 C-32.35533562 45.46542361 -27.95722142 47.79178963 -22.58984375 49.59375 C-13.78815611 50.51798094 -6.46570989 49.65871317 1.41015625 45.59375 C2.44547351 46.49402588 3.4630979 47.41468035 4.47265625 48.34375 C5.04113281 48.85421875 5.60960937 49.3646875 6.1953125 49.890625 C7.41015625 51.59375 7.41015625 51.59375 7.390625 53.62890625 C6.0175151 56.3805966 4.41902544 56.98751992 1.66015625 58.28125 C0.7990625 58.69761719 -0.06203125 59.11398437 -0.94921875 59.54296875 C-11.35752805 63.6847368 -24.28515632 62.49809706 -34.58984375 58.59375 C-44.05698969 54.12694458 -48.98147258 48.34482833 -52.71875 38.671875 C-55.30134981 29.54591693 -54.09605167 19.88869698 -49.58984375 11.59375 C-38.18931769 -4.19719141 -17.58363527 -9.54767526 0 0 Z M-35.02734375 12.84375 C-37.21575916 16.69536112 -36.95569765 19.20350323 -36.58984375 23.59375 C-32.98742019 27.19617356 -23.03270752 25.7254829 -18.42578125 25.73046875 C-16.58886719 25.72466797 -16.58886719 25.72466797 -14.71484375 25.71875 C-12.843125 25.72455078 -12.843125 25.72455078 -10.93359375 25.73046875 C-9.75023437 25.72917969 -8.566875 25.72789062 -7.34765625 25.7265625 C-6.26629395 25.72543457 -5.18493164 25.72430664 -4.07080078 25.72314453 C-1.64724239 25.8742546 -1.64724239 25.8742546 -0.58984375 24.59375 C0.08813295 19.84791309 -0.53246843 17.15138474 -3.27734375 13.34375 C-6.49474541 9.18690031 -9.60282086 6.85445868 -14.89453125 6.16015625 C-23.82711162 6.15038319 -28.39701264 6.72344436 -35.02734375 12.84375 Z "
        fill="#000000" transform="translate(564.58984375,341.40625)" />
    <path
        d="M0 0 C0.35715088 0.76965088 0.71430176 1.53930176 1.08227539 2.33227539 C8.77648546 18.92295666 8.77648546 18.92295666 16.5 35.5 C17.00917969 36.59183594 17.51835938 37.68367187 18.04296875 38.80859375 C19.47898219 41.887143 20.92016654 44.96325126 22.36196899 48.03909302 C23.54876615 50.57308991 24.73261456 53.10845858 25.91601562 55.64404297 C26.5077697 56.9103838 27.10068261 58.17618384 27.69482422 59.44140625 C28.53529973 61.23163334 29.37123124 63.02399154 30.20703125 64.81640625 C30.6966333 65.86256104 31.18623535 66.90871582 31.69067383 67.98657227 C32.96612496 70.92203624 33.98788714 73.96366143 35 77 C30.38 78.98 25.76 80.96 21 83 C18.02347677 80.02347677 16.87240931 77.98425648 15.14453125 74.21484375 C14.60844238 73.05291504 14.07235352 71.89098633 13.52001953 70.69384766 C12.95067882 69.44180794 12.38150907 68.18969047 11.8125 66.9375 C11.22559267 65.65911507 10.63818758 64.38095855 10.05029297 63.10302734 C6.52974794 55.43373865 3.08476331 47.73191784 -0.30541992 40.00415039 C-3.30231959 33.21607972 -6.60574575 26.59758171 -10 20 C-17.60048205 20.15200964 -23.43586134 23.466113 -30.01464844 26.95019531 C-33.53503644 28.81168922 -37.07715849 30.62902763 -40.625 32.4375 C-41.29982422 32.79142822 -41.97464844 33.14535645 -42.66992188 33.51000977 C-46.12128156 35.27189573 -48.04069656 36 -52 36 C-52.67119549 34.5437455 -53.33681807 33.08492133 -54 31.625 C-54.37125 30.81289063 -54.7425 30.00078125 -55.125 29.1640625 C-56 27 -56 27 -56 25 C-51.38647155 22.64800511 -46.74046855 20.40121597 -42.03515625 18.23828125 C-37.45100829 16.12822538 -32.86842765 14.01494943 -28.2890625 11.89453125 C-24.95703125 10.35351562 -24.95703125 10.35351562 -21.625 8.8125 C-20.50222656 8.29236328 -19.37945313 7.77222656 -18.22265625 7.23632812 C-2.56704981 0 -2.56704981 0 0 0 Z "
        fill="#000000" transform="translate(679,912)" />
    <path
        d="M0 0 C-3.55066548 22.68674818 -7.17072352 45.35843906 -11 68 C-13.03814233 68.67736481 -15.08070555 69.34143534 -17.125 70 C-18.26195312 70.37125 -19.39890625 70.7425 -20.5703125 71.125 C-23.92166108 71.98001376 -26.56340334 72.32779654 -30 72 C-32.203125 69.8671875 -32.203125 69.8671875 -34.25 66.875 C-34.62713135 66.3380249 -35.0042627 65.8010498 -35.39282227 65.24780273 C-36.19799237 64.09881127 -36.99473862 62.94387837 -37.78369141 61.78369141 C-39.78853873 58.84362426 -41.8676886 55.95699872 -43.9375 53.0625 C-44.35281982 52.47654053 -44.76813965 51.89058105 -45.19604492 51.28686523 C-48.05845923 47.26092178 -51.02560252 43.33298441 -54.0625 39.4375 C-57.50209395 35.01012522 -60.84043648 30.52606657 -64.0625 25.9375 C-64.79597656 24.89464844 -65.52945312 23.85179687 -66.28515625 22.77734375 C-68 20 -68 20 -69 16 C-62.07 14.515 -62.07 14.515 -55 13 C-50.83581837 18.26896451 -46.84922755 23.59278243 -43.02734375 29.11328125 C-40.49965978 32.71243049 -37.91206049 36.2650573 -35.3125 39.8125 C-34.84875977 40.44687988 -34.38501953 41.08125977 -33.90722656 41.73486328 C-31.34690592 45.22143383 -28.73024712 48.64313879 -26 52 C-25.01 51.67 -24.02 51.34 -23 51 C-22.9189653 50.44289841 -22.8379306 49.88579681 -22.75444031 49.31181335 C-21.9092658 43.5184981 -21.04674829 37.72795574 -20.17407227 31.9387207 C-19.85059395 29.77727527 -19.53155716 27.61516029 -19.21704102 25.45239258 C-18.76441378 22.34530261 -18.29591337 19.2409638 -17.82421875 16.13671875 C-17.68658615 15.16788254 -17.54895355 14.19904633 -17.40715027 13.20085144 C-17.2672316 12.3001442 -17.12731293 11.39943695 -16.9831543 10.47143555 C-16.86546188 9.67867722 -16.74776947 8.88591888 -16.62651062 8.06913757 C-15.88388185 5.61650384 -14.97996634 4.59678512 -13 3 C-10.625 2.05078125 -10.625 2.05078125 -8 1.3125 C-6.700625 0.93544922 -6.700625 0.93544922 -5.375 0.55078125 C-3 0 -3 0 0 0 Z "
        fill="#000000" transform="translate(497,339)" />
    <path
        d="M0 0 C4.70198894 1.9576722 7.04715476 7.73892516 9.140625 12.13671875 C11.21204527 17.53381377 11.57211277 22.25266776 10.0546875 27.85546875 C5.16928746 38.23694384 -7.05640923 41.78163484 -16.9453125 45.85546875 C-19.05442625 46.78178553 -21.15913585 47.71824251 -23.2578125 48.66796875 C-24.14082031 49.06628906 -25.02382812 49.46460938 -25.93359375 49.875 C-27.89344723 50.69499064 -27.89344723 50.69499064 -28.9453125 51.85546875 C-29.10846889 55.52648746 -28.8457918 58.25355155 -27.9453125 61.85546875 C-30.9153125 63.17546875 -33.8853125 64.49546875 -36.9453125 65.85546875 C-39.45347709 63.34730416 -40.55941269 61.94709139 -41.9453125 58.85546875 C-47.47238163 59.58271469 -52.64491391 61.18992848 -57.9453125 62.85546875 C-58.83946305 61.11517573 -59.71006428 59.36276725 -60.5703125 57.60546875 C-61.05757812 56.6309375 -61.54484375 55.65640625 -62.046875 54.65234375 C-62.9453125 51.85546875 -62.9453125 51.85546875 -62.4140625 49.66796875 C-60.49623812 47.30129185 -58.57707089 46.37781878 -55.8203125 45.10546875 C-54.91023437 44.6775 -54.00015625 44.24953125 -53.0625 43.80859375 C-52.36382812 43.4940625 -51.66515625 43.17953125 -50.9453125 42.85546875 C-51.3480448 39.43224423 -51.70676003 36.41209118 -53.0703125 33.23046875 C-54.18036876 30.2174589 -54.19387343 28.82080096 -52.9453125 25.85546875 C-49.73797946 23.83345444 -47.75376814 22.85546875 -43.9453125 22.85546875 C-43.10766982 24.81196272 -42.27532191 26.77072431 -41.4453125 28.73046875 C-40.74921875 30.36628906 -40.74921875 30.36628906 -40.0390625 32.03515625 C-38.9453125 34.85546875 -38.9453125 34.85546875 -38.9453125 36.85546875 C-31.94466548 35.37149926 -25.67209837 32.79160547 -19.1328125 29.91796875 C-18.09705078 29.47517578 -17.06128906 29.03238281 -15.99414062 28.57617188 C-15.00220703 28.14369141 -14.01027344 27.71121094 -12.98828125 27.265625 C-12.09133545 26.87511963 -11.19438965 26.48461426 -10.27026367 26.08227539 C-8.00050862 24.88459408 -6.55115519 23.84442797 -4.9453125 21.85546875 C-4.50788279 19.48229697 -4.50788279 19.48229697 -4.6328125 16.91796875 C-4.63861328 15.63599609 -4.63861328 15.63599609 -4.64453125 14.328125 C-4.95897196 11.74317734 -5.72395913 10.1264993 -6.9453125 7.85546875 C-6.76550401 4.97853288 -5.9273229 3.8325165 -4.1328125 1.54296875 C-1.9453125 -0.14453125 -1.9453125 -0.14453125 0 0 Z "
        fill="#000000" transform="translate(279.9453125,764.14453125)" />
    <path
        d="M0 0 C3.68133415 2.7690879 6.55930212 5.65866575 9.4375 9.25 C10.60345703 10.70019531 10.60345703 10.70019531 11.79296875 12.1796875 C13.65041348 14.55327174 15.46405768 16.94759519 17.25 19.375 C18.87855961 21.58200975 20.42280425 23.42280425 22.375 25.375 C25.45518789 28.45518789 28.06901542 31.77893119 30.765625 35.1953125 C33.53244573 38.66834971 36.37718174 42.07244824 39.22631836 45.47802734 C42.66449347 49.59077698 46.0635559 53.73389562 49.453125 57.88671875 C52.62369978 61.76745073 55.81293652 65.6328093 59 69.5 C67.39196215 79.68726872 67.39196215 79.68726872 71.1875 84.3125 C71.86167969 85.13363281 72.53585937 85.95476562 73.23046875 86.80078125 C73.81441406 87.52652344 74.39835938 88.25226563 75 89 C75.57492187 89.70769531 76.14984375 90.41539062 76.7421875 91.14453125 C78 93 78 93 77.9375 95.375 C76.77007062 98.64380227 75.02293413 101.19399459 73 104 C69.26107049 102.49775154 67.45906395 100.39834702 65 97.25 C61.38418948 92.70338678 57.67879469 88.26536394 53.875 83.875 C50.05564935 79.44987456 46.36795558 74.97093081 42.82421875 70.3203125 C40.54267138 67.4183015 38.14904772 64.61714961 35.75 61.8125 C31.22046476 56.51610098 26.87304283 51.09910827 22.61621094 45.58129883 C20.89112368 43.35451485 19.20333792 41.19895564 17.1875 39.2265625 C16 38 16 38 16 36 C15.34 36 14.68 36 14 36 C12.62367695 34.32118837 11.32558818 32.57808258 10.0625 30.8125 C7.48755141 27.22756632 4.86698321 23.78377577 1.890625 20.51953125 C1.37878662 19.95194092 0.86694824 19.38435059 0.33959961 18.79956055 C-0.66422896 17.69879953 -1.68401978 16.61234866 -2.72045898 15.54223633 C-4.10546875 14.0078125 -4.10546875 14.0078125 -6 11 C-5.17916669 6.3580461 -3.08841595 3.50020474 0 0 Z "
        fill="#000000" transform="translate(776,788)" />
    <path
        d="M0 0 C1.77988604 0.20299527 3.55068515 0.48813938 5.3125 0.8125 C6.76076172 1.06966797 6.76076172 1.06966797 8.23828125 1.33203125 C10.78454545 1.94788865 12.69805493 2.79290122 15 4 C13.5489109 16.30851006 10.87367552 28.28995353 8.1875 40.375 C7.28441974 44.47220862 6.38457493 48.57012649 5.484375 52.66796875 C5.26607529 53.65922256 5.04777557 54.65047638 4.82286072 55.67176819 C2.92977984 64.2796258 1.11324248 72.90143987 -0.6418457 81.53857422 C-0.81288818 82.37533691 -0.98393066 83.21209961 -1.16015625 84.07421875 C-1.30074463 84.77119873 -1.44133301 85.46817871 -1.58618164 86.1862793 C-2 88 -2 88 -3 91 C-8.23880078 90.44854729 -12.97350697 89.57077907 -18 88 C-18.18162666 82.54218651 -17.52570283 77.64244498 -16.42578125 72.3046875 C-16.26170273 71.48321732 -16.09762421 70.66174713 -15.92857361 69.81538391 C-15.39709417 67.16707397 -14.85529321 64.52101226 -14.3125 61.875 C-13.94288248 60.04991672 -13.57341679 58.22480268 -13.20410156 56.3996582 C-11.03185217 45.72484501 -8.71959468 35.10062474 -6.09375 24.52734375 C-4.64181168 18.64569717 -3.44093293 12.7104565 -2.25488281 6.77026367 C-1.1037951 1.1037951 -1.1037951 1.1037951 0 0 Z "
        fill="#000000" transform="translate(607,318)" />
    <path
        d="M0 0 C6.50131657 0.47282302 11.1578813 2.2220473 17 5 C19.45502683 6.0917388 21.91243784 7.17557479 24.375 8.25 C25.0558667 8.54801514 25.7367334 8.84603027 26.43823242 9.15307617 C36.62525921 13.59974784 46.88765697 17.87146896 57.1484375 22.14453125 C58.41433716 22.67348999 58.41433716 22.67348999 59.70581055 23.21313477 C61.30523459 23.88138405 62.90559055 24.54740936 64.50708008 25.21069336 C69.45021558 27.27815829 74.23009929 29.55832942 79 32 C78.54636829 33.58468677 78.08688548 35.16769924 77.625 36.75 C77.36976563 37.63171875 77.11453125 38.5134375 76.8515625 39.421875 C76.0790066 41.76080572 75.16374324 43.83442562 74 46 C70.66715727 45.40628929 67.66279541 44.58986998 64.5234375 43.328125 C63.68683594 42.99296875 62.85023438 42.6578125 61.98828125 42.3125 C61.12589844 41.961875 60.26351562 41.61125 59.375 41.25 C58.53582031 40.91484375 57.69664062 40.5796875 56.83203125 40.234375 C52.47915209 38.4799321 48.1824452 36.64396629 43.921875 34.67578125 C36.33862671 31.19404624 28.59927855 28.08970558 20.875 24.9375 C2.95514167 17.61679344 2.95514167 17.61679344 -5 14 C-4.46515599 8.65155992 -2.53309233 4.64203897 0 0 Z "
        fill="#000000" transform="translate(794,774)" />
    <path
        d="M0 0 C5.67152369 0.27665969 9.46294096 2.87933249 14 6 C12.7611318 10.67364498 11.2770579 14.86986343 9.1875 19.25 C8.89834717 19.8591626 8.60919434 20.4683252 8.3112793 21.09594727 C7.21407708 23.40048389 6.10699844 25.70015251 5 28 C3.92963581 30.23304814 2.85932771 32.46612317 1.7890625 34.69921875 C-7.69746031 54.46819988 -7.69746031 54.46819988 -12 63 C-16.84406597 62.5274082 -21.44701949 61.48427647 -25 58 C-25.91135085 55.19625591 -25.9500647 52.99611802 -26 50 C-27.485 50.2475 -27.485 50.2475 -29 50.5 C-34.78363505 51.30783566 -40.74476354 52.0257422 -46 49 C-47 46 -47 46 -46.328125 43.9921875 C-45.97234375 43.29351563 -45.6165625 42.59484375 -45.25 41.875 C-44.90453125 41.17117188 -44.5590625 40.46734375 -44.203125 39.7421875 C-43 38 -43 38 -40 37 C-39.113125 37.309375 -38.22625 37.61875 -37.3125 37.9375 C-31.75957839 39.7186258 -27.14388347 39.76910106 -21.8125 37.5 C-13.59110169 32.72206924 -10.46180279 21.80943438 -6.75 13.5625 C-5.68416694 11.20878533 -4.61655875 8.8558734 -3.546875 6.50390625 C-3.08120117 5.47080322 -2.61552734 4.4377002 -2.13574219 3.37329102 C-1 1 -1 1 0 0 Z "
        fill="#000000" transform="translate(425,923)" />
    <path
        d="M0 0 C0.83790789 1.78953185 1.67019396 3.58169695 2.5 5.375 C2.9640625 6.37273438 3.428125 7.37046875 3.90625 8.3984375 C5 11 5 11 5 13 C3.35 13.66 1.7 14.32 0 15 C0 16.65 0 18.3 0 20 C0.66 20.185625 1.32 20.37125 2 20.5625 C7.22959667 23.06834841 11.84263539 26.73349431 14.5 31.9375 C14.665 32.618125 14.83 33.29875 15 34 C13.58521865 34.64995297 12.16808513 35.29478722 10.75 35.9375 C9.96109375 36.29714844 9.1721875 36.65679688 8.359375 37.02734375 C6.24176302 37.90033279 4.23330638 38.51338508 2 39 C1.62488281 38.31292969 1.24976563 37.62585938 0.86328125 36.91796875 C0.35152344 36.01691406 -0.16023437 35.11585938 -0.6875 34.1875 C-1.18636719 33.29417969 -1.68523438 32.40085937 -2.19921875 31.48046875 C-4.77475057 27.93282731 -7.31052353 26.40237913 -11.55859375 25.390625 C-22.49373166 24.85647986 -31.52701864 29.45051886 -41.32177734 33.82617188 C-45.50450154 35.65940231 -49.7482499 37.33444883 -54 39 C-59.22321429 28.95535714 -59.22321429 28.95535714 -60 24 C-58.27716797 23.34644531 -58.27716797 23.34644531 -56.51953125 22.6796875 C-48.32993353 19.54870928 -40.2823082 16.29652505 -32.35546875 12.5390625 C-27.64270113 10.37744382 -22.84944851 8.43038704 -18.04614258 6.48022461 C-14.20025978 4.91641723 -10.39644423 3.3008041 -6.625 1.5625 C-3 0 -3 0 0 0 Z "
        fill="#000000" transform="translate(844,527)" />
    <path
        d="M0 0 C3.24288003 2.46740872 4.71012502 4.13037506 6 8 C6 11.6860549 5.31141604 13.14925356 3 16 C0.11528002 18.32380221 -1.75586624 18.96448964 -5.4375 19.5 C-10.08107772 18.84826979 -11.89093657 17.47919003 -15 14 C-16.17685412 10.12330406 -16.40013199 8.03563575 -14.9375 4.25 C-10.61328167 -0.7716729 -6.30716747 -1.83481236 0 0 Z "
        fill="#000000" transform="translate(824,623)" />
    <path
        d="M0 0 C2.97046873 1.79023785 5.42502414 3.85004828 7 7 C7.40417552 9.96395382 7.56382171 12.08904926 5.953125 14.69140625 C4.15636794 16.88450678 2.55808759 18.7209562 0 20 C-3.28528294 20.29202515 -5.58597011 20.15405763 -8.6875 19 C-11.93699909 16.18962241 -13.36408168 13.25018829 -14 9 C-12.91276737 5.6103924 -11.65767205 3.70464862 -9.25 1.125 C-5.91027806 -0.54486097 -3.6879065 -0.50867676 0 0 Z "
        fill="#000000" transform="translate(583,944)" />
</svg>